<svg id="moveIcon" xmlns="http://www.w3.org/2000/svg" viewBox="0 0 574.93 574.93">
  <defs>
    <style>
      .cls-1 {
        fill: #fff;
        stroke: #000;
        stroke-miterlimit: 10;
        stroke-width: 8px;
      }
    </style>
  </defs>
  <title>fullscreen</title>
  <rect class="cls-1" x="4" y="4" width="566.93" height="566.93" rx="85.04" ry="85.04"/>
  <polygon points="244.1 201.79 183.1 140.79 248.5 70.99 70.99 71 70.99 254.84 140.29 182.6 199.79 242.1 244.1 201.79"/>
  <polygon points="371.7 242.1 431.2 182.6 500.5 254.84 500.5 71 322.99 70.99 388.38 140.79 327.38 201.79 371.7 242.1"/>
  <polygon points="201.51 337.72 142.01 397.22 72.71 324.99 72.71 508.83 250.22 508.83 184.82 439.04 245.82 378.04 201.51 337.72"/>
  <polygon points="329.11 378.04 390.11 439.04 324.71 508.83 502.22 508.83 502.22 324.99 432.92 397.22 373.42 337.72 329.11 378.04"/>
</svg>
