<?xml version="1.0" encoding="utf-8"?>
<!-- Generator: Adobe Illustrator 19.2.1, SVG Export Plug-In . SVG Version: 6.00 Build 0)  -->
<svg version="1.1" id="LightIcon" xmlns="http://www.w3.org/2000/svg" xmlns:xlink="http://www.w3.org/1999/xlink" x="0px" y="0px"
	 viewBox="0 0 574.9 574.9" style="enable-background:new 0 0 574.9 574.9;" xml:space="preserve">
<style type="text/css">
	.st0{fill:#FFFFFF;stroke:#000000;stroke-width:8;stroke-miterlimit:10;}
	.st1{fill:none;stroke:#000000;stroke-width:40;stroke-miterlimit:10;}
</style>
<title>light</title>
<path class="st0" d="M89,4h396.8c47,0,85,38.1,85,85v396.9c0,47-38.1,85-85,85H89c-47,0-85-38.1-85-85V89C4,42.1,42.1,4,89,4z"/>
<path class="st1" d="M287.4,81.6c-67,0-121.3,54.3-121.3,121.3c0,63,60.7,65,60.7,182H348c-1-115,63-115,60.7-182
	C408.6,135.9,354.4,81.6,287.4,81.6z"/>
<path class="st1" d="M226.8,446.9H348"/>
</svg>
