<svg id="moveIcon" xmlns="http://www.w3.org/2000/svg" viewBox="0 0 574.93 574.93">
  <defs>
    <style>
      .cls-1 {
        fill: #fff;
        stroke: #000;
        stroke-miterlimit: 10;
        stroke-width: 8px;
      }
    </style>
  </defs>
  <title>move1</title>
  <rect class="cls-1" x="4" y="4" width="566.93" height="566.93" rx="85.04" ry="85.04"/>
  <polygon points="474.14 247.95 405.7 208.43 405.7 262.53 312.4 262.53 312.4 169.23 366.5 169.23 326.98 100.79 287.46 32.35 247.95 100.79 208.43 169.23 262.53 169.23 262.53 262.53 169.23 262.53 169.23 208.43 100.79 247.95 32.35 287.46 100.79 326.98 169.23 366.5 169.23 312.4 262.53 312.4 262.53 405.7 208.43 405.7 247.95 474.14 287.46 542.58 326.98 474.14 366.5 405.7 312.4 405.7 312.4 312.4 405.7 312.4 405.7 366.5 474.14 326.98 542.58 287.46 474.14 247.95"/>
</svg>
