<svg id="RotateIcon" xmlns="http://www.w3.org/2000/svg" viewBox="0 0 574.93 574.93"><defs><style>.cls-1{fill:#fff;stroke-width:8px;}.cls-1,.cls-3{stroke:#000;stroke-miterlimit:10;}.cls-2,.cls-3{fill:none;}.cls-4{fill:#000;}</style></defs><title>reset</title><rect class="cls-1" x="4" y="4" width="566.93" height="566.93" rx="85.04" ry="85.04"/><path class="cls-2" d="M93.27,295.9c82.34-47.53,197-2.72,256.46,100.2"/><path class="cls-2" d="M361.8,88.75C263,45,161,96,119.35,164.54"/><circle class="cls-2" cx="287.46" cy="273" r="147.87"/><path class="cls-3" d="M428.73,269.7"/><path class="cls-3" d="M482.54,270.24"/><path class="cls-3" d="M110,297"/><path class="cls-4" d="M398.14,351c-11.89,24.19-39.37,53-65.26,64.44-6.49,2.87-25.9,14.36-54.75,14.48-66.46.28-116.41-34.22-137.19-77.47C119.35,307.5,119.35,265,139.6,224.25c16.21-32.64,28.32-40.44,43.86-52.52A138.89,138.89,0,0,1,318,151.47l-32.5,52.89,91,3,91,3-42.91-81.3-42.91-81.3L346.8,104.66c-86.73-38.78-191-8-242.45,75.79-11.6,20-42.55,69.81-31.92,131,11.57,66.49,69.29,137,134.07,160.15,38.54,13.8,96.81,17.55,150.88-9.5,38.82-19.41,64.12-41.66,87.71-86.25,4.54-8.59,12.07-27.2,12.07-27.2l-49-23.12A150.87,150.87,0,0,1,398.14,351Z"/></svg>