<svg id="RotateIcon" xmlns="http://www.w3.org/2000/svg" viewBox="0 0 574.93 574.93">
  <defs>
    <style>
      .cls-1 {
        fill: #fff;
        stroke: #000;
        stroke-miterlimit: 10;
        stroke-width: 8px;
      }
    </style>
  </defs>
  <title>rotate1</title>
  <rect class="cls-1" x="4" y="4" width="566.93" height="566.93" rx="85.04" ry="85.04"/>
  <g>
    <path d="M389.54,189.48l91,3-42.91-81.3-42.91-81.3L359.8,86.75c-86.73-38.78-191-8-242.45,75.79L163,191.26C198.77,133,269.88,110.2,331,133.56l-32.5,52.89Z" transform="translate(2 2)"/>
    <path d="M531.81,365.68a196.82,196.82,0,0,0-14.75-149.23l-47.33,25.71A142.2,142.2,0,0,1,480.39,350a140.68,140.68,0,0,1-45,68.48l-29.1-54.91-48,78.35-48,78.35,91,2.87,91,2.87L461,467A194.45,194.45,0,0,0,531.81,365.68Z" transform="translate(2 2)"/>
    <path d="M185.39,439.9a141.29,141.29,0,0,1-35.06-74.21l61.49,2.81-41.93-81.82L128,204.86,79,282.52,30,360.19l66,3a195.59,195.59,0,0,0,49.8,113.37,191.34,191.34,0,0,0,134.17,63.58l2.42-54.32A138.25,138.25,0,0,1,185.39,439.9Z" transform="translate(2 2)"/>
  </g>
</svg>
