<svg id="moveIcon" xmlns="http://www.w3.org/2000/svg" viewBox="0 0 574.93 574.93">
  <defs>
    <style>
      .cls-1 {
        fill: #fff;
        stroke: #000;
        stroke-miterlimit: 10;
        stroke-width: 8px;
      }
    </style>
  </defs>
  <title>unfullscreen</title>
  <rect class="cls-1" x="4" y="4" width="566.93" height="566.93" rx="85.04" ry="85.04"/>
  <polygon points="75.38 124.04 136.38 185.04 70.99 254.84 248.5 254.83 248.5 70.99 179.2 143.22 119.7 83.72 75.38 124.04"/>
  <polygon points="451.79 83.72 392.29 143.22 322.99 70.99 322.99 254.83 500.5 254.84 435.1 185.04 496.1 124.04 451.79 83.72"/>
  <polygon points="121.42 496.1 180.92 436.6 250.22 508.83 250.22 325 72.71 324.99 138.1 394.79 77.11 455.79 121.42 496.1"/>
  <polygon points="497.82 455.79 436.82 394.79 502.22 324.99 324.71 325 324.71 508.83 394.01 436.6 453.51 496.1 497.82 455.79"/>
</svg>
